<svg width="18" height="18" viewBox="0 0 18 18" fill="none" xmlns="http://www.w3.org/2000/svg">
<path d="M5.61181 0.760315H12.6474C15.3276 0.760315 17.5053 2.93878 17.5053 5.61997V12.6581C17.5053 13.9469 16.9935 15.183 16.0825 16.0944C15.1714 17.0057 13.9358 17.5177 12.6474 17.5177H5.61181C2.93159 17.5177 0.753906 15.3393 0.753906 12.6581V5.61997C0.753906 4.33111 1.26572 3.09504 2.17675 2.18367C3.08779 1.27231 4.32342 0.760315 5.61181 0.760315ZM5.4443 2.43606C4.6446 2.43606 3.87766 2.75385 3.31219 3.31952C2.74672 3.88519 2.42905 4.65241 2.42905 5.45239V12.8257C2.42905 14.493 3.77753 15.842 5.4443 15.842H12.8149C13.6146 15.842 14.3816 15.5242 14.947 14.9585C15.5125 14.3929 15.8302 13.6256 15.8302 12.8257V5.45239C15.8302 3.78503 14.4817 2.43606 12.8149 2.43606H5.4443ZM13.5268 3.69286C13.8045 3.69286 14.0708 3.80321 14.2672 3.99962C14.4635 4.19604 14.5738 4.46243 14.5738 4.7402C14.5738 5.01797 14.4635 5.28437 14.2672 5.48078C14.0708 5.6772 13.8045 5.78754 13.5268 5.78754C13.2492 5.78754 12.9829 5.6772 12.7865 5.48078C12.5902 5.28437 12.4799 5.01797 12.4799 4.7402C12.4799 4.46243 12.5902 4.19604 12.7865 3.99962C12.9829 3.80321 13.2492 3.69286 13.5268 3.69286ZM9.12961 4.94967C10.2403 4.94967 11.3055 5.39105 12.0909 6.1767C12.8762 6.96236 13.3175 8.02794 13.3175 9.13903C13.3175 10.2501 12.8762 11.3157 12.0909 12.1013C11.3055 12.887 10.2403 13.3284 9.12961 13.3284C8.01892 13.3284 6.95372 12.887 6.16835 12.1013C5.38298 11.3157 4.94176 10.2501 4.94176 9.13903C4.94176 8.02794 5.38298 6.96236 6.16835 6.1767C6.95372 5.39105 8.01892 4.94967 9.12961 4.94967ZM9.12961 6.62541C8.46319 6.62541 7.82408 6.89024 7.35285 7.36163C6.88163 7.83303 6.6169 8.47237 6.6169 9.13903C6.6169 9.80568 6.88163 10.445 7.35285 10.9164C7.82408 11.3878 8.46319 11.6526 9.12961 11.6526C9.79602 11.6526 10.4351 11.3878 10.9064 10.9164C11.3776 10.445 11.6423 9.80568 11.6423 9.13903C11.6423 8.47237 11.3776 7.83303 10.9064 7.36163C10.4351 6.89024 9.79602 6.62541 9.12961 6.62541Z" fill="white"/>
</svg>
