<svg width="17" height="16" viewBox="0 0 17 16" fill="none" xmlns="http://www.w3.org/2000/svg">
<path d="M4.03237 2.10071C4.03215 2.53963 3.85764 2.96049 3.54723 3.2707C3.23682 3.58091 2.81594 3.75506 2.37717 3.75484C1.93841 3.75462 1.5177 3.58005 1.2076 3.26953C0.897502 2.95901 0.723414 2.53797 0.723633 2.09905C0.723852 1.66013 0.898362 1.23927 1.20877 0.929058C1.51918 0.618848 1.94006 0.444697 2.37883 0.444916C2.81759 0.445135 3.2383 0.619707 3.5484 0.930228C3.8585 1.24075 4.03259 1.66178 4.03237 2.10071ZM4.082 4.98034H0.773264V15.3404H4.082V4.98034ZM9.3098 4.98034H6.01761V15.3404H9.27671V9.90385C9.27671 6.87527 13.2224 6.59393 13.2224 9.90385V15.3404H16.4898V8.77848C16.4898 3.67292 10.6498 3.86324 9.27671 6.37051L9.3098 4.98034Z" fill="white"/>
</svg>
