<svg width="16" height="11" viewBox="0 0 16 11" fill="none" xmlns="http://www.w3.org/2000/svg">
<path d="M12.8719 0.184287H4.06673C2.33846 0.184287 0.938477 1.56917 0.938477 3.27783V7.63097C0.938477 9.33963 2.33921 10.7253 4.06673 10.7253H12.8719C14.6002 10.7253 16.0001 9.33963 16.0001 7.63097V3.27783C16.0001 1.56917 14.5994 0.183533 12.8719 0.183533V0.184287ZM10.7564 5.66572L6.63802 7.60909C6.6129 7.62118 6.58513 7.62673 6.55729 7.6252C6.52945 7.62368 6.50245 7.61514 6.4788 7.60038C6.45515 7.58561 6.43562 7.56511 6.42202 7.54077C6.40843 7.51643 6.40121 7.48904 6.40104 7.46116V3.45443C6.40154 3.42641 6.40913 3.39897 6.42309 3.37468C6.43706 3.35038 6.45695 3.33001 6.4809 3.31547C6.50486 3.30093 6.53211 3.29269 6.56011 3.29152C6.58811 3.29035 6.61595 3.29628 6.64104 3.30877L10.7602 5.37289C10.7877 5.38658 10.8107 5.40772 10.8266 5.43389C10.8426 5.46007 10.8509 5.49021 10.8505 5.52087C10.8501 5.55152 10.841 5.58145 10.8244 5.6072C10.8078 5.63296 10.7842 5.65274 10.7564 5.66572Z" fill="white"/>
</svg>
